<svg width="137" height="137" viewBox="0 0 137 137" fill="none" xmlns="http://www.w3.org/2000/svg">
<g clip-path="url(#clip0_40_1263)">
<path d="M112.254 66.157L98.8007 58.5868V40.5482C98.8007 40.0351 98.5969 39.5431 98.2341 39.1803C97.8714 38.8176 97.3794 38.6138 96.8663 38.6138H86.8597C86.606 38.6138 86.3548 38.6639 86.1205 38.7611C85.8862 38.8584 85.6734 39.001 85.4943 39.1807C85.3152 39.3605 85.1733 39.5738 85.0769 39.8084C84.9804 40.0431 84.9312 40.2944 84.932 40.5482V50.789L67.5293 41.01C67.2396 40.8488 66.9136 40.7642 66.5821 40.7642C66.2507 40.7642 65.9247 40.8488 65.635 41.01L20.9635 66.157C20.573 66.4346 20.2994 66.8473 20.1957 67.315C20.0921 67.7828 20.1657 68.2724 20.4023 68.6889C20.6389 69.1055 21.0217 69.4195 21.4766 69.57C21.9314 69.7205 22.426 69.6969 22.8644 69.5037L28.6341 66.2641V109.604C28.6341 109.857 28.6841 110.109 28.7814 110.343C28.8787 110.577 29.0213 110.79 29.201 110.969C29.3807 111.148 29.594 111.29 29.8287 111.387C30.0633 111.483 30.3147 111.532 30.5684 111.531H102.656C103.168 111.531 103.659 111.329 104.022 110.967C104.384 110.606 104.589 110.116 104.59 109.604V66.2641L110.367 69.5104C110.651 69.6752 110.975 69.7607 111.304 69.758C111.73 69.7562 112.143 69.6138 112.48 69.353C112.817 69.0922 113.058 68.7276 113.166 68.3156C113.275 67.9037 113.244 67.4675 113.079 67.0748C112.914 66.6821 112.624 66.3547 112.254 66.1436V66.157ZM88.7941 42.4758H94.9319V56.4115L88.7941 52.9577V42.4758ZM76.9736 107.683H56.2242V80.849C56.2242 78.0974 57.3172 75.4586 59.2628 73.5129C61.2085 71.5673 63.8473 70.4742 66.5989 70.4742C69.3504 70.4742 71.9893 71.5673 73.9349 73.5129C75.8806 75.4586 76.9736 78.0974 76.9736 80.849V107.683ZM100.715 107.683H80.8357V80.849C80.8357 77.0731 79.3357 73.4519 76.6658 70.782C73.9959 68.1121 70.3747 66.6122 66.5989 66.6122C62.823 66.6122 59.2019 68.1121 56.5319 70.782C53.862 73.4519 52.3621 77.0731 52.3621 80.849V107.683H32.4894V64.1021L66.6257 44.9122L100.762 64.1021L100.715 107.683Z" fill="#010101"/>
<path d="M92.9911 29.1158V33.9417C92.9756 34.2048 93.014 34.4684 93.1041 34.7161C93.1941 34.9639 93.3338 35.1906 93.5146 35.3824C93.6955 35.5742 93.9136 35.727 94.1556 35.8315C94.3977 35.9359 94.6585 35.9898 94.9221 35.9898C95.1857 35.9898 95.4465 35.9359 95.6886 35.8315C95.9306 35.727 96.1487 35.5742 96.3296 35.3824C96.5104 35.1906 96.6501 34.9639 96.7402 34.7161C96.8302 34.4684 96.8686 34.2048 96.8531 33.9417V29.1158C96.8531 27.1077 98.3123 27.1077 98.8612 27.1077C103.031 27.1077 105.943 23.3728 105.943 20.0262C105.958 19.763 105.92 19.4995 105.83 19.2517C105.74 19.004 105.6 18.7772 105.419 18.5854C105.238 18.3936 105.02 18.2408 104.778 18.1364C104.536 18.0319 104.275 17.978 104.012 17.978C103.748 17.978 103.487 18.0319 103.245 18.1364C103.003 18.2408 102.785 18.3936 102.604 18.5854C102.423 18.7772 102.284 19.004 102.194 19.2517C102.104 19.4995 102.065 19.763 102.081 20.0262C102.081 21.1172 100.943 23.2457 98.8612 23.2457C94.805 23.2457 92.9844 26.1974 92.9844 29.1224L92.9911 29.1158Z" fill="#010101"/>
<path d="M88.8073 35.8765C89.061 35.8765 89.3122 35.8264 89.5465 35.7292C89.7808 35.6319 89.9937 35.4893 90.1728 35.3096C90.3518 35.1298 90.4937 34.9165 90.5902 34.6819C90.6866 34.4472 90.7359 34.1959 90.735 33.9421V25.2408C90.735 23.2327 92.1941 23.2327 92.743 23.2327C96.9197 23.2327 99.8246 19.4978 99.8246 16.1512C99.8401 15.888 99.8016 15.6245 99.7116 15.3767C99.6216 15.129 99.4818 14.9022 99.301 14.7104C99.1202 14.5186 98.902 14.3658 98.66 14.2614C98.418 14.1569 98.1572 14.103 97.8936 14.103C97.6299 14.103 97.3691 14.1569 97.1271 14.2614C96.8851 14.3658 96.6669 14.5186 96.4861 14.7104C96.3053 14.9022 96.1655 15.129 96.0755 15.3767C95.9855 15.6245 95.947 15.888 95.9625 16.1512C95.9625 17.2422 94.8246 19.3707 92.743 19.3707C88.6868 19.3707 86.8662 22.3224 86.8662 25.2474V33.9488C86.8662 34.4619 87.07 34.9539 87.4328 35.3167C87.7956 35.6794 88.2876 35.8832 88.8006 35.8832L88.8073 35.8765Z" fill="#010101"/>
<path d="M129.416 137H93.8543C92.7238 136.956 91.6543 136.475 90.8702 135.66C90.086 134.845 89.6479 133.757 89.6479 132.626C89.6479 131.494 90.086 130.407 90.8702 129.592C91.6543 128.776 92.7238 128.296 93.8543 128.252H126.21C126.479 128.256 126.747 128.206 126.997 128.105C127.246 128.005 127.473 127.854 127.664 127.664C127.854 127.473 128.004 127.246 128.105 126.997C128.206 126.747 128.256 126.48 128.252 126.21V93.8611C128.228 93.2723 128.325 92.6849 128.534 92.1341C128.743 91.5833 129.062 91.0805 129.47 90.6557C129.879 90.231 130.369 89.8931 130.911 89.6623C131.453 89.4315 132.036 89.3125 132.626 89.3125C133.215 89.3125 133.798 89.4315 134.34 89.6623C134.882 89.8931 135.372 90.231 135.781 90.6557C136.189 91.0805 136.508 91.5833 136.717 92.1341C136.927 92.6849 137.023 93.2723 137 93.8611V129.416C136.964 131.416 136.153 133.324 134.739 134.739C133.324 136.153 131.416 136.964 129.416 137Z" fill="#010101"/>
<path d="M132.622 47.5227C131.472 47.4938 130.377 47.0241 129.564 46.2106C128.75 45.3971 128.28 44.302 128.251 43.1519V10.7827C128.251 10.5162 128.198 10.2523 128.095 10.0065C127.992 9.76066 127.842 9.53779 127.652 9.35089C127.461 9.16398 127.236 9.01678 126.989 8.91786C126.741 8.81893 126.476 8.77028 126.21 8.77472H93.8609C92.709 8.74921 91.6114 8.28073 90.7961 7.4667C89.9808 6.65267 89.5107 5.55572 89.4834 4.40394C89.5038 3.24685 89.9707 2.14243 90.7865 1.32162C91.6024 0.500812 92.7039 0.0271603 93.8609 -0.000296335H129.416C130.413 -0.00741803 131.402 0.183702 132.324 0.561955C133.247 0.940207 134.085 1.49805 134.79 2.20305C135.495 2.90805 136.052 3.74616 136.431 4.66864C136.809 5.59113 137 6.5796 136.993 7.5766V43.1385C136.969 44.2915 136.501 45.3908 135.687 46.2075C134.873 47.0243 133.775 47.4953 132.622 47.5227Z" fill="#010101"/>
<path d="M4.37048 47.5227C3.2181 47.4937 2.12113 47.0221 1.30726 46.2057C0.493399 45.3894 0.0251473 44.291 -0.000296335 43.1385V7.5766C-0.00741803 6.5796 0.183702 5.59113 0.561955 4.66864C0.940207 3.74616 1.49805 2.90805 2.20305 2.20305C2.90805 1.49805 3.74616 0.940207 4.66864 0.561955C5.59113 0.183702 6.5796 -0.00741803 7.5766 -0.000296335H43.1385C44.291 0.0251473 45.3894 0.493399 46.2057 1.30726C47.0221 2.12113 47.4937 3.2181 47.5227 4.37048C47.4955 5.52177 47.0265 6.6185 46.2128 7.43343C45.3992 8.24837 44.3031 8.71904 43.1519 8.74794H10.7827C10.2502 8.74794 9.73943 8.9595 9.36285 9.33608C8.98628 9.71265 8.77472 10.2234 8.77472 10.756V43.1385C8.75062 44.2972 8.27825 45.4014 7.45691 46.2189C6.63557 47.0365 5.52923 47.5039 4.37048 47.5227Z" fill="#010101"/>
<path d="M43.1385 137H7.5766C6.57929 137.006 5.59067 136.814 4.66814 136.435C3.74562 136.056 2.90757 135.497 2.20266 134.792C1.49775 134.086 0.940015 133.248 0.561842 132.325C0.183669 131.402 -0.00740847 130.413 -0.000296827 129.416V93.8542C0.0285332 92.7041 0.498279 91.609 1.31179 90.7955C2.12531 89.982 3.22036 89.5122 4.37048 89.4834C5.52177 89.5105 6.6185 89.9795 7.43343 90.7932C8.24837 91.6069 8.71904 92.7029 8.74794 93.8542V126.21C8.7435 126.476 8.79216 126.741 8.89108 126.989C8.99 127.236 9.13721 127.461 9.32411 127.652C9.51102 127.842 9.73388 127.992 9.97971 128.095C10.2255 128.198 10.4894 128.251 10.756 128.251H43.1385C44.2977 128.251 45.4094 128.712 46.2291 129.532C47.0488 130.351 47.5093 131.463 47.5093 132.622C47.5093 133.781 47.0488 134.893 46.2291 135.713C45.4094 136.532 44.2977 136.993 43.1385 136.993V137Z" fill="#010101"/>
</g>
<defs>
<clipPath id="clip0_40_1263">
<rect width="137" height="137" fill="white"/>
</clipPath>
</defs>
</svg>
