<svg width="103" height="103" viewBox="0 0 103 103" fill="none" xmlns="http://www.w3.org/2000/svg">
<g clip-path="url(#clip0_40_1302)">
<path d="M88.3042 68.0014C89.4967 66.5704 91.9264 63.1569 93.4766 60.7719C94.684 58.9087 97.2479 54.5859 97.7845 53.5424C98.6193 51.8431 98.9174 50.7699 98.7087 50.1736C98.5596 49.7265 98.3808 49.5774 97.8441 49.3687C97.5758 49.2793 97.2479 49.1004 97.0392 48.9215C96.7411 48.683 96.5175 48.5787 95.7573 48.3551C94.2518 47.893 93.5959 47.7737 89.4371 47.252C86.5751 46.8943 85.323 46.7154 82.1032 46.2384C80.7915 46.0297 79.3754 45.8359 78.958 45.8061C77.0948 45.6422 74.3222 45.6422 73.4875 45.821C73.1595 45.8807 73.1595 45.8807 73.1893 46.0595C73.2192 46.298 73.3682 46.4173 73.875 46.6856C74.9185 47.2222 77.5419 48.1762 79.0475 48.5489C80.4188 48.8768 85.0248 49.5774 89.4818 50.1289C92.4332 50.4867 93.104 50.591 93.104 50.6506C93.104 50.7401 86.8732 54.407 84.1603 55.9274C76.1706 60.3695 69.0454 63.3209 62.9488 64.7668C56.3901 66.317 48.9817 66.6599 39.5908 65.8251C33.0321 65.2587 29.2609 64.4687 24.7294 62.7395C20.2725 61.0253 13.6541 57.8354 10.2406 55.7336C7.43824 54.0045 3.41358 51.1127 2.34033 50.0395C1.74409 49.4432 1.50559 49.0557 1.40125 48.4445C1.29691 47.8334 1.11803 47.6843 0.93915 48.0421C0.790092 48.3402 0.84972 49.0259 1.07331 49.488C1.46088 50.3227 2.37015 51.2618 4.56135 53.0356C8.60093 56.3001 10.8816 57.8354 15.1895 60.1459C20.8538 63.1867 25.5343 65.1543 29.5739 66.2723C34.329 67.5691 42.4826 68.4486 49.6078 68.4486C59.7589 68.4635 67.4505 66.7046 77.6165 62.0837C81.2685 60.4291 86.7241 57.5671 90.078 55.5548C90.3911 55.361 90.6445 55.2566 90.6445 55.2865C90.6445 55.3163 90.3314 55.838 89.9588 56.4193C88.9452 58.0292 87.6036 60.2949 86.7987 61.7855C85.6956 63.8128 83.8472 67.7778 83.8323 68.1207C83.8174 68.3443 84.1007 69.1939 84.205 69.2386C84.2497 69.2535 84.2944 69.3281 84.2944 69.4175C84.3242 69.7156 84.8609 70.4609 85.1292 70.5504C85.2186 70.5802 85.3677 70.5504 85.4571 70.4907C85.5466 70.4311 85.7105 70.3864 85.8149 70.3715C85.9788 70.3566 86.1577 70.2075 86.9179 69.4473C87.4098 68.9554 88.0359 68.2995 88.3042 68.0014Z" fill="#EEF2F5"/>
</g>
<defs>
<clipPath id="clip0_40_1302">
<rect width="68.9332" height="76.1006" fill="white" transform="translate(102.554 53.811) rotate(135)"/>
</clipPath>
</defs>
</svg>
