<svg width="106" height="137" viewBox="0 0 106 137" fill="none" xmlns="http://www.w3.org/2000/svg">
<g clip-path="url(#clip0_40_1297)">
<path d="M2.97121 6.12362e-05C2.14553 0.0387692 1.36904 0.403928 0.812565 1.01521C0.256088 1.62649 -0.0347936 2.43381 0.00391013 3.25958C0.0426139 4.08535 0.407733 4.86193 1.01894 5.41846C1.63016 5.975 2.43739 6.26591 3.26308 6.22721H71.7542V31.1358C71.7538 31.5448 71.8341 31.9498 71.9904 32.3277C72.1467 32.7057 72.3761 33.049 72.6652 33.3382C72.9544 33.6274 73.2977 33.8568 73.6756 34.0131C74.0535 34.1694 74.4585 34.2497 74.8674 34.2494H99.7733V130.77H6.37631V15.5679C6.37631 15.159 6.29578 14.7542 6.13933 14.3764C5.98287 13.9987 5.75355 13.6554 5.46446 13.3663C5.17537 13.0772 4.83217 12.8478 4.45446 12.6914C4.07674 12.5349 3.67191 12.4544 3.26308 12.4544C2.85424 12.4544 2.44941 12.5349 2.07169 12.6914C1.69398 12.8478 1.35078 13.0772 1.06169 13.3663C0.772597 13.6554 0.543278 13.9987 0.386824 14.3764C0.230369 14.7542 0.149843 15.159 0.149843 15.5679V133.884C0.149477 134.293 0.229754 134.698 0.386079 135.076C0.542404 135.454 0.771709 135.797 1.06087 136.086C1.35004 136.375 1.69338 136.605 2.07126 136.761C2.44914 136.917 2.85414 136.998 3.26308 136.997H102.887C103.295 136.998 103.7 136.917 104.078 136.761C104.456 136.605 104.8 136.375 105.089 136.086C105.378 135.797 105.607 135.454 105.764 135.076C105.92 134.698 106 134.293 106 133.884V31.1358C106 30.7221 105.917 30.3126 105.758 29.9309C105.599 29.5491 105.365 29.2028 105.071 28.9118L77.0578 0.878534C76.4707 0.310335 75.6843 -0.00505284 74.8674 6.12362e-05H2.97121ZM77.9807 10.6084L95.3953 28.025H77.9807V10.6084ZM13.8675 26.4682C13.4587 26.4865 13.0574 26.5851 12.6867 26.7584C12.316 26.9317 11.983 27.1764 11.7068 27.4784C11.4307 27.7805 11.2167 28.1339 11.0771 28.5187C10.9375 28.9034 10.875 29.3119 10.8933 29.7208C10.9115 30.1297 11.0101 30.5309 11.1834 30.9017C11.3568 31.2725 11.6014 31.6055 11.9034 31.8817C12.2054 32.1579 12.5588 32.3719 12.9435 32.5115C13.3282 32.6511 13.7367 32.7136 14.1455 32.6954H48.391C49.2167 32.6954 50.0086 32.3673 50.5924 31.7834C51.1763 31.1995 51.5043 30.4076 51.5043 29.5818C51.5043 28.756 51.1763 27.9641 50.5924 27.3802C50.0086 26.7962 49.2167 26.4682 48.391 26.4682H13.8675ZM13.8675 38.9225C13.4587 38.9408 13.0574 39.0394 12.6867 39.2127C12.316 39.386 11.983 39.6307 11.7068 39.9327C11.4307 40.2348 11.2167 40.5882 11.0771 40.973C10.9375 41.3577 10.875 41.7662 10.8933 42.1751C10.9115 42.584 11.0101 42.9852 11.1834 43.356C11.3568 43.7268 11.6014 44.0598 11.9034 44.336C12.2054 44.6122 12.5588 44.8262 12.9435 44.9658C13.3282 45.1054 13.7367 45.1679 14.1455 45.1496H39.0513C39.877 45.1496 40.6689 44.8216 41.2527 44.2377C41.8366 43.6538 42.1646 42.8618 42.1646 42.0361C42.1646 41.2103 41.8366 40.4184 41.2527 39.8344C40.6689 39.2505 39.877 38.9225 39.0513 38.9225H14.1594C14.0668 38.9175 13.974 38.9175 13.8814 38.9225H13.8675ZM15.716 52.9336C14.8903 52.9336 14.0985 53.2616 13.5146 53.8455C12.9308 54.4294 12.6028 55.2214 12.6028 56.0472V93.4072C12.6024 93.8162 12.6827 94.2213 12.839 94.5992C12.9953 94.9771 13.2246 95.3205 13.5138 95.6097C13.803 95.8989 14.1463 96.1282 14.5242 96.2846C14.9021 96.4409 15.3071 96.5212 15.716 96.5208H90.4336C91.2593 96.5208 92.0511 96.1928 92.635 95.6089C93.2188 95.025 93.5468 94.233 93.5468 93.4072V56.0472C93.5468 55.2214 93.2188 54.4294 92.635 53.8455C92.0511 53.2616 91.2593 52.9336 90.4336 52.9336H15.716ZM18.8292 59.1607H63.9711V65.3879H18.8292V59.1607ZM70.1976 59.1607H87.3204V65.3879H70.1976V59.1607ZM18.8292 71.615H63.9711V77.8394H18.8292V71.615ZM70.1976 71.615H87.3204V77.8394H70.1976V71.615ZM18.8292 84.0693H63.9711V90.2965H18.8292V84.0693ZM70.1976 84.0693H87.3204V90.2965H70.1976V84.0693ZM54.3534 104.308C53.9446 104.326 53.5434 104.424 53.1726 104.598C52.8019 104.771 52.4689 105.016 52.1928 105.318C51.9166 105.62 51.7026 105.973 51.563 106.358C51.4234 106.743 51.3609 107.151 51.3792 107.56C51.3974 107.969 51.496 108.37 51.6694 108.741C51.8427 109.112 52.0873 109.445 52.3893 109.721C52.6913 109.997 53.0447 110.211 53.4294 110.351C53.8141 110.49 54.2226 110.553 54.6314 110.535H88.877C89.7026 110.535 90.4945 110.207 91.0784 109.623C91.6622 109.039 91.9902 108.247 91.9902 107.421C91.9902 106.595 91.6622 105.803 91.0784 105.219C90.4945 104.636 89.7026 104.308 88.877 104.308H54.3395H54.3534ZM63.6931 116.762C63.2843 116.78 62.8831 116.879 62.5123 117.052C62.1416 117.225 61.8086 117.47 61.5325 117.772C61.2563 118.074 61.0423 118.428 60.9027 118.812C60.7631 119.197 60.7006 119.606 60.7189 120.014C60.7371 120.423 60.8357 120.825 61.0091 121.195C61.1824 121.566 61.427 121.899 61.729 122.175C62.031 122.452 62.3844 122.666 62.7691 122.805C63.1538 122.945 63.5623 123.007 63.9711 122.989H88.877C89.2858 122.989 89.6906 122.908 90.0683 122.752C90.4461 122.595 90.7893 122.366 91.0784 122.077C91.3674 121.788 91.5968 121.445 91.7532 121.067C91.9097 120.689 91.9902 120.284 91.9902 119.875C91.9902 119.467 91.9097 119.062 91.7532 118.684C91.5968 118.306 91.3674 117.963 91.0784 117.674C90.7893 117.385 90.4461 117.155 90.0683 116.999C89.6906 116.842 89.2858 116.762 88.877 116.762H63.9711C63.8785 116.757 63.7857 116.757 63.6931 116.762Z" fill="black"/>
</g>
<defs>
<clipPath id="clip0_40_1297">
<rect width="106" height="137" fill="white"/>
</clipPath>
</defs>
</svg>
