<svg width="32" height="33" viewBox="0 0 32 33" fill="none" xmlns="http://www.w3.org/2000/svg">
<path d="M31.5648 28.166L25.3331 21.9354C25.0518 21.6542 24.6706 21.4979 24.2705 21.4979H23.2517C24.9768 19.2919 26.0019 16.5172 26.0019 13.4987C26.0019 6.31818 20.1827 0.5 13.001 0.5C5.81918 0.5 0 6.31818 0 13.4987C0 20.6793 5.81918 26.4975 13.001 26.4975C16.0199 26.4975 18.7951 25.4726 21.0015 23.7477V24.7664C21.0015 25.1663 21.1578 25.5476 21.4391 25.8288L27.6708 32.0594C28.2583 32.6469 29.2084 32.6469 29.7897 32.0594L31.5586 30.2908C32.1461 29.7034 32.1461 28.7535 31.5648 28.166ZM13.001 21.4979C8.58188 21.4979 5.00037 17.9233 5.00037 13.4987C5.00037 9.08041 8.57563 5.49951 13.001 5.49951C17.42 5.49951 21.0015 9.07416 21.0015 13.4987C21.0015 17.917 17.4263 21.4979 13.001 21.4979Z" fill="white"/>
</svg>
