<svg width="89" height="142" viewBox="0 0 89 142" fill="none" xmlns="http://www.w3.org/2000/svg">
<g clip-path="url(#clip0_40_1280)">
<path d="M8.73862 142H80.2614C82.5786 141.997 84.8001 141.076 86.4384 139.438C88.0767 137.801 88.998 135.58 89 133.264V8.73555C88.998 6.41978 88.0767 4.19943 86.4384 2.56171C84.8001 0.923981 82.5786 0.00268555 80.2614 0H8.73862C6.42159 0.00335693 4.20045 0.924866 2.56229 2.56245C0.924141 4.20003 0.00268555 6.42 0 8.73555V133.264C0.00268555 135.58 0.924141 137.8 2.56229 139.438C4.20045 141.075 6.42159 141.997 8.73862 142ZM80.2614 136.32H8.73862C7.92992 136.317 7.15549 135.993 6.58485 135.421C6.01419 134.848 5.6938 134.073 5.69381 133.264V128.982H83.3163V133.264C83.3163 134.073 82.996 134.848 82.4253 135.421C81.8547 135.993 81.0802 136.317 80.2715 136.32H80.2614ZM5.68366 18.6984H83.3163V123.302H5.67352L5.68366 18.6984ZM8.72849 5.68001H80.2614C81.0701 5.68336 81.8445 6.00676 82.4152 6.57942C82.9858 7.15208 83.3062 7.92735 83.3062 8.73555V13.0184H5.66336V8.73555C5.66335 7.92735 5.98374 7.15208 6.55439 6.57942C7.12505 6.00676 7.89948 5.68336 8.70818 5.68001H8.72849Z" fill="black"/>
<path d="M45.1038 80.8133L54.2382 73.1782C54.5574 72.9122 54.8141 72.5793 54.9903 72.2031C55.1665 71.8269 55.2578 71.4167 55.2578 71.0013C55.2578 70.586 55.1665 70.1757 54.9903 69.7995C54.8141 69.4234 54.5574 69.0905 54.2382 68.8244L45.1038 61.1894C44.5924 60.7633 43.9477 60.53 43.282 60.5301H14.5313C14.158 60.5298 13.7883 60.603 13.4434 60.7456C13.0984 60.8882 12.785 61.0974 12.5211 61.3612C12.2571 61.625 12.0478 61.9382 11.9051 62.2829C11.7624 62.6276 11.6891 62.9971 11.6895 63.3701V78.6351C11.6895 79.3883 11.9889 80.1107 12.5218 80.6433C13.0548 81.1759 13.7776 81.4751 14.5313 81.4751H43.2896C43.9532 81.4738 44.5953 81.2395 45.1038 80.8133ZM17.3655 75.7951V66.2101H42.2594L47.9964 71.0001L42.2569 75.7951H17.3655Z" fill="black"/>
<path d="M74.4688 91.5823H45.7105C45.0439 91.5841 44.3987 91.8181 43.8862 92.2442L34.7517 99.8767C34.4333 100.143 34.1773 100.477 34.0016 100.853C33.8259 101.229 33.7349 101.64 33.7349 102.055C33.7349 102.47 33.8259 102.88 34.0016 103.257C34.1773 103.633 34.4333 103.966 34.7517 104.233L43.8862 111.866C44.3975 112.292 45.042 112.526 45.708 112.527H74.4663C75.2198 112.527 75.9422 112.227 76.475 111.695C77.0078 111.162 77.3074 110.44 77.3081 109.687V94.4223C77.3084 94.0495 77.2352 93.6803 77.0927 93.3357C76.9502 92.9912 76.7411 92.6781 76.4774 92.4143C76.2137 92.1506 75.9006 91.9413 75.5559 91.7986C75.2113 91.6558 74.8419 91.5823 74.4688 91.5823ZM71.627 106.847H46.7432L41.0063 102.055L46.7432 97.2623H71.627V106.847Z" fill="black"/>
<path d="M74.4688 29.4775H45.7105C45.0441 29.4783 44.3989 29.7114 43.8862 30.1367L34.7517 37.7692C34.4328 38.0365 34.1763 38.3704 34.0003 38.7474C33.8243 39.1243 33.7331 39.5353 33.7331 39.9512C33.7331 40.3672 33.8243 40.7781 34.0003 41.1551C34.1763 41.5321 34.4328 41.8659 34.7517 42.1332L43.8862 49.7606C44.3977 50.1863 45.0423 50.4196 45.708 50.4199H74.4663C74.8395 50.4199 75.209 50.3465 75.5538 50.2037C75.8986 50.061 76.2119 49.8518 76.4757 49.5881C76.7396 49.3244 76.949 49.0113 77.0918 48.6667C77.2346 48.3222 77.3081 47.9529 77.3081 47.5799V32.32C77.3091 31.9469 77.2364 31.5772 77.0941 31.2322C76.9518 30.8872 76.7428 30.5737 76.479 30.3096C76.2152 30.0455 75.9019 29.836 75.5569 29.6933C75.212 29.5505 74.8422 29.4771 74.4688 29.4775ZM71.627 44.7374H46.7432L41.0063 39.9474L46.7432 35.1549H71.627V44.7374Z" fill="black"/>
</g>
<defs>
<clipPath id="clip0_40_1280">
<rect width="89" height="142" fill="white" transform="translate(89 142) rotate(-180)"/>
</clipPath>
</defs>
</svg>
